<svg width="115" height="24" viewBox="0 0 115 24" fill="none" xmlns="http://www.w3.org/2000/svg">
<path d="M8.408 0.599998H13.816L21.944 23H16.856L15.576 19.48H6.648L5.368 23H0.28L8.408 0.599998ZM8.408 14.68H13.816L11.096 7.256L8.408 14.68ZM24.4825 23V0.599998H29.2825V18.2H38.0825V23H24.4825ZM50.2575 23.416C48.7428 23.416 47.3188 23.1173 45.9855 22.52C44.6522 21.912 43.4788 21.0747 42.4655 20.008C41.4522 18.9413 40.6575 17.7093 40.0815 16.312C39.5055 14.904 39.2175 13.4 39.2175 11.8C39.2175 10.2 39.5055 8.70133 40.0815 7.304C40.6575 5.896 41.4522 4.65867 42.4655 3.592C43.4788 2.52533 44.6522 1.69333 45.9855 1.096C47.3188 0.487998 48.7428 0.183998 50.2575 0.183998C51.7828 0.183998 53.2122 0.487998 54.5455 1.096C55.8788 1.69333 57.0522 2.52533 58.0655 3.592C59.0788 4.65867 59.8682 5.896 60.4335 7.304C61.0095 8.70133 61.2975 10.2 61.2975 11.8C61.2975 13.4 61.0095 14.904 60.4335 16.312C59.8682 17.7093 59.0788 18.9413 58.0655 20.008C57.0522 21.0747 55.8788 21.912 54.5455 22.52C53.2122 23.1173 51.7828 23.416 50.2575 23.416ZM50.2575 18.616C51.1108 18.616 51.9108 18.44 52.6575 18.088C53.4148 17.7253 54.0815 17.2347 54.6575 16.616C55.2335 15.9867 55.6815 15.2613 56.0015 14.44C56.3322 13.6187 56.4975 12.7387 56.4975 11.8C56.4975 10.8613 56.3322 9.98133 56.0015 9.16C55.6815 8.33867 55.2335 7.61867 54.6575 7C54.0815 6.37067 53.4148 5.88 52.6575 5.528C51.9108 5.16533 51.1108 4.984 50.2575 4.984C49.4042 4.984 48.5988 5.16533 47.8415 5.528C47.0948 5.88 46.4335 6.37067 45.8575 7C45.2815 7.61867 44.8282 8.33867 44.4975 9.16C44.1775 9.98133 44.0175 10.8613 44.0175 11.8C44.0175 12.7387 44.1775 13.6187 44.4975 14.44C44.8282 15.2613 45.2815 15.9867 45.8575 16.616C46.4335 17.2347 47.0948 17.7253 47.8415 18.088C48.5988 18.44 49.4042 18.616 50.2575 18.616ZM64.0138 23V0.599998H73.1338C74.3604 0.599998 75.4698 0.909332 76.4618 1.528C77.4538 2.14667 78.2378 2.97867 78.8138 4.024C79.4004 5.05866 79.6938 6.2 79.6938 7.448C79.6938 8.408 79.5338 9.304 79.2138 10.136C78.8938 10.9573 78.4351 11.688 77.8378 12.328C77.2511 12.9573 76.5578 13.464 75.7578 13.848L81.0698 23H75.5338L70.4778 14.296H68.8138V23H64.0138ZM68.8138 9.496H72.5578C72.9844 9.496 73.3738 9.38933 73.7258 9.176C74.0778 8.952 74.3604 8.65867 74.5738 8.296C74.7871 7.93333 74.8938 7.53333 74.8938 7.096C74.8938 6.65867 74.7871 6.25867 74.5738 5.896C74.3604 5.53333 74.0778 5.24533 73.7258 5.032C73.3738 4.808 72.9844 4.696 72.5578 4.696H68.8138V9.496ZM84.1188 23V0.599998H88.9188V23H84.1188ZM92.2725 23L100.465 11.736L92.3685 0.599998H98.2885L103.441 7.672L108.593 0.599998H114.513L106.417 11.736L114.609 23H108.657L103.441 15.832L98.2245 23H92.2725Z" fill="#2B777C"/>
</svg>
